<svg width="56" height="55" viewBox="0 0 56 55" fill="none" xmlns="http://www.w3.org/2000/svg">
<path d="M39.2857 55H0.785714C0.57733 55 0.37748 54.9172 0.23013 54.7699C0.0827803 54.6225 0 54.4227 0 54.2143V0.785727C0 0.577343 0.0827803 0.377493 0.23013 0.230143C0.37748 0.0827935 0.57733 1.31327e-05 0.785714 1.31327e-05H28.2857C28.3891 -0.000584712 28.4916 0.019235 28.5873 0.0583357C28.6831 0.0974365 28.7701 0.155049 28.8436 0.22787L39.8436 11.2279C39.9164 11.3013 39.974 11.3884 40.0131 11.4841C40.0522 11.5798 40.072 11.6823 40.0714 11.7857V54.2143C40.0714 54.4227 39.9886 54.6225 39.8413 54.7699C39.6939 54.9172 39.4941 55 39.2857 55ZM1.57143 53.4286H38.5V12.1079L27.9636 1.57144H1.57143V53.4286Z" fill="#1C4681"/>
<path d="M39.2858 12.5714H28.2858C28.0774 12.5714 27.8775 12.4886 27.7302 12.3413C27.5828 12.1939 27.5001 11.9941 27.5001 11.7857V0.785714C27.5001 0.57733 27.5828 0.37748 27.7302 0.23013C27.8775 0.0827803 28.0774 0 28.2858 0C28.4942 0 28.694 0.0827803 28.8414 0.23013C28.9887 0.37748 29.0715 0.57733 29.0715 0.785714V11H39.2858C39.4942 11 39.694 11.0828 39.8414 11.2301C39.9887 11.3775 40.0715 11.5773 40.0715 11.7857C40.0715 11.9941 39.9887 12.1939 39.8414 12.3413C39.694 12.4886 39.4942 12.5714 39.2858 12.5714ZM21.2144 11H5.50007C5.29169 11 5.09184 10.9172 4.94449 10.7699C4.79714 10.6225 4.71436 10.4227 4.71436 10.2143C4.71436 10.0059 4.79714 9.80605 4.94449 9.6587C5.09184 9.51135 5.29169 9.42857 5.50007 9.42857H21.2144C21.4227 9.42857 21.6226 9.51135 21.7699 9.6587C21.9173 9.80605 22.0001 10.0059 22.0001 10.2143C22.0001 10.4227 21.9173 10.6225 21.7699 10.7699C21.6226 10.9172 21.4227 11 21.2144 11ZM25.9286 19.6429H5.50007C5.29169 19.6429 5.09184 19.5601 4.94449 19.4127C4.79714 19.2654 4.71436 19.0655 4.71436 18.8571C4.71436 18.6488 4.79714 18.4489 4.94449 18.3016C5.09184 18.1542 5.29169 18.0714 5.50007 18.0714H25.9286C26.137 18.0714 26.3369 18.1542 26.4842 18.3016C26.6316 18.4489 26.7143 18.6488 26.7143 18.8571C26.7143 19.0655 26.6316 19.2654 26.4842 19.4127C26.3369 19.5601 26.137 19.6429 25.9286 19.6429ZM34.5715 28.2857H5.50007C5.29169 28.2857 5.09184 28.2029 4.94449 28.0556C4.79714 27.9082 4.71436 27.7084 4.71436 27.5C4.71436 27.2916 4.79714 27.0918 4.94449 26.9444C5.09184 26.7971 5.29169 26.7143 5.50007 26.7143H34.5715C34.7799 26.7143 34.9797 26.7971 35.1271 26.9444C35.2744 27.0918 35.3572 27.2916 35.3572 27.5C35.3572 27.7084 35.2744 27.9082 35.1271 28.0556C34.9797 28.2029 34.7799 28.2857 34.5715 28.2857ZM34.5715 36.9286H5.50007C5.29169 36.9286 5.09184 36.8458 4.94449 36.6984C4.79714 36.5511 4.71436 36.3512 4.71436 36.1428C4.71436 35.9345 4.79714 35.7346 4.94449 35.5873C5.09184 35.4399 5.29169 35.3571 5.50007 35.3571H34.5715C34.7799 35.3571 34.9797 35.4399 35.1271 35.5873C35.2744 35.7346 35.3572 35.9345 35.3572 36.1428C35.3572 36.3512 35.2744 36.5511 35.1271 36.6984C34.9797 36.8458 34.7799 36.9286 34.5715 36.9286ZM34.5715 45.5714H5.50007C5.29169 45.5714 5.09184 45.4886 4.94449 45.3413C4.79714 45.1939 4.71436 44.9941 4.71436 44.7857C4.71436 44.5773 4.79714 44.3775 4.94449 44.2301C5.09184 44.0828 5.29169 44 5.50007 44H34.5715C34.7799 44 34.9797 44.0828 35.1271 44.2301C35.2744 44.3775 35.3572 44.5773 35.3572 44.7857C35.3572 44.9941 35.2744 45.1939 35.1271 45.3413C34.9797 45.4886 34.7799 45.5714 34.5715 45.5714ZM44.8879 45.0293C44.6829 45.0305 44.4855 44.9516 44.3379 44.8093C44.2637 44.7365 44.2046 44.6497 44.1642 44.554C44.1237 44.4582 44.1026 44.3554 44.1022 44.2514L43.8665 21.945C43.8767 21.5351 44.0468 21.1454 44.3404 20.8591C44.634 20.5729 45.0279 20.4127 45.4379 20.4129L50.4508 20.35C50.8494 20.3472 51.2342 20.4961 51.5272 20.7664C51.6787 20.9039 51.8002 21.0711 51.884 21.2577C51.9678 21.4443 52.0122 21.6462 52.0143 21.8507L52.2501 44.165C52.2501 44.3734 52.1673 44.5732 52.0199 44.7206C51.8726 44.8679 51.6727 44.9507 51.4643 44.9507L44.8801 45.0214L44.8879 45.0293ZM45.4379 22L45.6658 43.4657L50.6786 43.4107L50.4508 21.8821L45.4379 22Z" fill="#1C4681"/>
<path d="M48.2663 53.2556C48.1099 53.2564 47.9568 53.2105 47.8266 53.1237C47.6964 53.0369 47.5951 52.9132 47.5356 52.7685L44.1571 44.5421C44.1085 44.4237 44.0895 44.2953 44.1018 44.1679C44.1141 44.0406 44.1574 43.9182 44.2278 43.8113C44.2989 43.7033 44.3957 43.6144 44.5095 43.5527C44.6233 43.4911 44.7505 43.4584 44.8799 43.4578L51.4642 43.3871C51.5922 43.386 51.7185 43.4162 51.8322 43.4751C51.9458 43.534 52.0434 43.6197 52.1163 43.7249C52.1893 43.8304 52.2353 43.9522 52.2504 44.0795C52.2654 44.2069 52.2491 44.336 52.2028 44.4556L48.9971 52.7528C48.9406 52.8992 48.8415 53.0254 48.7127 53.115C48.5839 53.2046 48.4311 53.2536 48.2742 53.2556H48.2663ZM46.0506 45.0135L48.2428 50.3485L50.3249 44.9663L46.0506 45.0135ZM44.7149 28.8749C44.5065 28.8749 44.3067 28.7921 44.1593 28.6448C44.012 28.4974 43.9292 28.2976 43.9292 28.0892C43.9292 27.8808 44.012 27.681 44.1593 27.5336C44.3067 27.3863 44.5065 27.3035 44.7149 27.3035L51.2992 27.2249C51.5076 27.2249 51.7074 27.3077 51.8548 27.455C52.0021 27.6024 52.0849 27.8022 52.0849 28.0106C52.0849 28.219 52.0021 28.4189 51.8548 28.5662C51.7074 28.7136 51.5076 28.7963 51.2992 28.7963L44.7149 28.8749ZM46.0585 21.9999C45.8524 21.999 45.6548 21.9172 45.5085 21.7721C45.3604 21.627 45.2757 21.4293 45.2728 21.2221V17.5292C45.2728 17.3208 45.3555 17.121 45.5029 16.9736C45.6502 16.8263 45.8501 16.7435 46.0585 16.7435L49.8142 16.7042C50.0219 16.7009 50.2225 16.78 50.3721 16.9242C50.4463 16.997 50.5054 17.0837 50.5458 17.1795C50.5863 17.2753 50.6073 17.3781 50.6078 17.4821V21.1671C50.6078 21.3754 50.525 21.5753 50.3776 21.7226C50.2303 21.87 50.0304 21.9528 49.8221 21.9528L46.0663 21.9999H46.0585ZM46.8442 18.2992V20.4206H49.0285V18.3071L46.8442 18.2992Z" fill="#1C4681"/>
<path d="M54.348 35.1218C54.1396 35.1218 53.9397 35.039 53.7924 34.8917C53.645 34.7443 53.5622 34.5445 53.5622 34.3361L53.4915 26.5889C53.4857 26.479 53.4389 26.3753 53.3604 26.2982C53.2818 26.2211 53.1772 26.1763 53.0672 26.1725H51.2994C51.091 26.1725 50.8912 26.0897 50.7438 25.9424C50.5965 25.795 50.5137 25.5952 50.5137 25.3868C50.5137 25.1784 50.5965 24.9786 50.7438 24.8312C50.8912 24.6839 51.091 24.6011 51.2994 24.6011H53.0751C53.5983 24.601 54.1003 24.8072 54.4725 25.1749C54.8446 25.5427 55.0568 26.0422 55.063 26.5654L55.1337 34.3282C55.1337 34.5366 55.0509 34.7364 54.9035 34.8838C54.7562 35.0311 54.5563 35.1139 54.348 35.1139V35.1218Z" fill="#1C4681"/>
</svg>
