<svg width="39" height="57" viewBox="0 0 39 57" fill="none" xmlns="http://www.w3.org/2000/svg">
<path d="M38.2131 54.1298L38.185 46.8989V46.8851C38.179 45.3527 38.1724 43.6155 37.4607 42.0772C36.7302 40.4978 35.3895 39.3904 34.0928 38.3196C33.1328 37.5264 32.1405 36.7066 31.4363 35.715C31.7286 35.5274 32.0143 35.3296 32.2928 35.122C33.3158 34.3601 34.1236 33.3001 34.9053 32.275C35.1864 31.9061 35.452 31.5574 35.726 31.2238C35.7731 31.1664 35.8048 31.0978 35.8178 31.0247C35.8308 30.9515 35.8247 30.8763 35.8003 30.8061C35.7758 30.736 35.7336 30.6733 35.6779 30.6242C35.6222 30.5751 35.5548 30.5411 35.4821 30.5255C32.7555 29.9422 30.2698 29.3549 27.5058 28.1028C28.1239 27.0264 28.4927 25.8141 28.5481 24.575C29.9223 24.4461 31.1955 23.4198 31.5592 22.08C31.7929 21.221 31.6322 20.0495 30.7284 19.5073C30.2353 19.2115 29.7041 19.1969 29.1906 19.3227C30.3608 17.9606 31.2982 16.5486 31.3482 14.8466C31.3835 13.6403 30.945 12.5254 30.5206 11.4474C30.4242 11.2019 30.3243 10.9477 30.2333 10.7005C29.6509 9.11602 29.6148 7.92042 30.1224 7.04483C30.1788 6.94757 30.1952 6.83217 30.168 6.72307C30.1409 6.61396 30.0723 6.5197 29.9769 6.46024C29.8815 6.40068 29.7666 6.3806 29.6566 6.40426C29.5467 6.42792 29.4502 6.49346 29.3878 6.587L28.7856 7.48751C28.4448 5.82119 27.706 4.22373 26.6514 2.89847C26.5963 2.82937 26.5214 2.77876 26.4368 2.75341C26.3521 2.72807 26.2617 2.72921 26.1777 2.75667C26.0937 2.7841 26.0202 2.83657 25.9669 2.90702C25.9137 2.97748 25.8832 3.06255 25.8797 3.1508L25.7762 5.73601C25.7723 5.83247 25.7614 5.90466 25.7496 5.95676C25.68 5.84096 25.6054 5.65329 25.5655 5.55436C25.1546 4.52634 24.1358 3.97612 23.3533 3.69586C22.9982 3.56867 22.6357 3.47006 22.2853 3.37478C21.7939 3.24179 21.3307 3.11589 20.8963 2.91953C20.1038 2.56074 19.5797 1.98292 19.4949 1.37373C19.4855 1.30518 19.4597 1.2399 19.4198 1.18335C19.38 1.1268 19.3271 1.08064 19.2657 1.04874C19.2043 1.01684 19.1361 1.00012 19.0669 1C18.9977 0.999877 18.9295 1.01635 18.868 1.04803C17.6507 1.67376 16.7493 2.83273 16.4065 4.14778C16.3159 3.94089 16.2718 3.71434 16.2857 3.49187C16.291 3.40494 16.2701 3.31842 16.2256 3.24358C16.181 3.16874 16.115 3.10904 16.036 3.07228C15.9571 3.03551 15.8688 3.02345 15.7828 3.03767C15.6969 3.05189 15.6172 3.09174 15.5543 3.15199C14.5342 4.12673 13.9253 5.4985 13.8524 6.90132C13.4948 6.49505 13.2154 6.02003 13.0387 5.5086C13.0053 5.41248 12.9391 5.33118 12.8518 5.27893C12.7645 5.22669 12.6616 5.20683 12.5611 5.22284C12.4606 5.23885 12.369 5.28971 12.3022 5.36651C12.2355 5.44331 12.1979 5.54114 12.196 5.64287C12.1692 7.25796 11.4623 8.72866 10.7141 10.2863C10.2089 11.3374 9.68636 12.4247 9.38214 13.574C8.7171 16.087 9.15441 18.8196 10.5462 21.0041C9.95201 21.156 9.41448 21.5299 9.10059 22.0658C8.55554 22.9972 8.76705 24.2813 9.58238 24.9887C10.2311 25.5515 11.1873 25.6845 11.9767 25.3774C12.2175 26.3195 12.6132 27.2194 13.1331 28.0365C10.4255 29.2413 7.57661 30.0992 4.65399 30.5899C4.58346 30.6017 4.51695 30.6307 4.46041 30.6745C4.40387 30.7183 4.35906 30.7754 4.33001 30.8407C4.30093 30.9061 4.2885 30.9778 4.29385 31.0492C4.29919 31.1206 4.32213 31.1895 4.36062 31.2499C5.56374 33.136 7.17957 34.7164 9.06203 35.884C8.31008 36.7795 7.44942 37.2171 6.45663 37.7203C6.13222 37.8848 5.79706 38.0547 5.44407 38.2503C3.9435 39.0824 2.31628 40.1696 1.62771 41.9232C1.2367 42.9193 1.21392 44.0091 1.19373 44.9713L1.00263 54.1491C0.994569 54.5117 0.98329 55.0588 1.33241 55.4772C1.76317 55.9933 2.4845 56 2.88272 56H2.89872L36.3667 55.9908C36.7385 55.9908 37.3608 55.9908 37.7847 55.5703C38.2169 55.1419 38.2144 54.5087 38.2131 54.1298ZM34.2163 31.7496C33.471 32.7274 32.7005 33.7382 31.7753 34.4276C30.5408 35.3474 29.1868 36.0508 27.7513 36.5173C27.6731 36.5427 27.6037 36.5899 27.5513 36.6532C27.4989 36.7166 27.4657 36.7936 27.4554 36.8752C27.4451 36.9568 27.4583 37.0397 27.4934 37.114C27.5285 37.1884 27.5841 37.2513 27.6536 37.2952L29.9223 38.7316C29.9454 38.7459 29.9962 38.7782 30.0281 38.8038C30.0163 38.8331 29.9886 38.886 29.9245 38.9754C28.5221 40.9405 26.7311 42.6613 24.999 44.3259C23.882 45.3992 22.7406 46.4965 21.6852 47.6735C24.4502 41.7327 26.3212 35.4439 27.257 28.9399C29.8211 30.0896 32.1392 30.6829 34.6186 31.2251C34.4827 31.3996 34.3484 31.5763 34.2163 31.7496ZM25.1072 35.4125C25.023 35.4118 24.9405 35.4362 24.8702 35.4825C24.1438 35.9567 23.5333 36.3868 22.9429 36.803C22.3583 37.2151 21.7538 37.6409 21.0404 38.1071C20.7213 38.3153 20.4575 38.4744 20.2003 38.4756H20.1969C19.9389 38.4756 19.6728 38.3179 19.3523 38.1114L15.0382 35.3365C14.6272 33.3707 14.3377 31.3814 14.1713 29.38C14.8725 30.1337 15.6949 30.7652 16.6029 31.2238C17.787 31.8227 19.1181 32.1201 20.4432 32.1201C21.8985 32.1201 23.3465 31.7609 24.5827 31.0472C25.203 30.6893 25.7648 30.2482 26.2591 29.7451C25.9579 31.6501 25.5735 33.541 25.1072 35.4125ZM18.8835 38.8399C19.2132 39.0518 19.664 39.3417 20.1972 39.3417H20.2049C20.7378 39.3391 21.1864 39.0463 21.5141 38.8323C22.2404 38.3577 22.851 37.9272 23.4418 37.5109C23.8748 37.2059 24.3192 36.8928 24.8106 36.5618C24.5679 37.4654 24.306 38.3637 24.0251 39.2561C23.9458 39.2619 23.8698 39.2899 23.8056 39.3367C22.8427 40.04 21.822 40.6606 20.7545 41.1918C20.5762 41.2808 20.4088 41.3617 20.2669 41.355C20.1122 41.3496 19.9229 41.2342 19.7559 41.1327L15.9253 38.7979C15.9126 38.7899 15.8996 38.7853 15.8866 38.7791C15.6751 38.0366 15.4809 37.2893 15.3042 36.5378L18.8835 38.8399ZM19.3048 41.8719C19.5372 42.0134 19.8553 42.2073 20.2372 42.2207C20.2515 42.2211 20.2658 42.2215 20.2799 42.2215C20.6019 42.2215 20.8813 42.0964 21.1402 41.9676C21.9938 41.5427 22.8188 41.0626 23.61 40.5305C22.6317 43.4326 21.4531 46.2634 20.0828 49.0025C18.5125 46.1461 17.2311 43.1279 16.2559 40.0134L19.3048 41.8719ZM10.2193 13.7952C10.5021 12.7255 11.0065 11.6761 11.4945 10.6611C12.0466 9.51209 12.6124 8.33464 12.8888 7.08006C13.2175 7.53704 13.6211 7.93987 14.0818 8.26331C14.1511 8.31199 14.2332 8.33926 14.3179 8.34175C14.4026 8.34423 14.4861 8.32181 14.5581 8.27728C14.6301 8.23269 14.6875 8.168 14.7232 8.09119C14.7589 8.01438 14.7714 7.92881 14.759 7.84501C14.5817 6.655 14.8938 5.41245 15.5862 4.43438C15.7603 4.86525 16.0616 5.24509 16.4535 5.50269C16.5175 5.54468 16.5915 5.56897 16.6679 5.57308C16.7443 5.5772 16.8205 5.561 16.8886 5.52613C16.9568 5.49126 17.0144 5.43896 17.0558 5.37456C17.0972 5.31016 17.1207 5.23595 17.1241 5.15948C17.1757 3.96484 17.8349 2.79191 18.8105 2.09496C19.1042 2.75667 19.7161 3.33621 20.5394 3.70843C21.0365 3.93337 21.5556 4.07431 22.0579 4.21073C22.4079 4.30558 22.7381 4.39496 23.0608 4.51076C23.676 4.73097 24.4698 5.14691 24.7636 5.88199C24.9155 6.26173 25.231 7.05106 25.9549 6.87908C26.1969 6.82107 26.6082 6.60086 26.6413 5.77081L26.6934 4.47467C27.465 5.75491 27.9531 7.21767 28.0915 8.69934C28.0999 8.78832 28.1357 8.87253 28.1938 8.9404C28.252 9.00826 28.3298 9.05647 28.4164 9.07839C28.5031 9.10032 28.5944 9.09489 28.6778 9.06285C28.7613 9.03082 28.8328 8.97374 28.8825 8.89946L28.9148 8.85166C28.9623 9.49748 29.1309 10.2112 29.4204 10.9992C29.5144 11.2556 29.6165 11.5141 29.7147 11.7642C30.125 12.8069 30.5128 13.7922 30.4825 14.8211C30.4372 16.3556 29.4779 17.6913 28.3152 19.0092C28.295 18.7821 28.2718 18.5552 28.2456 18.3287C28.2395 18.2775 28.234 18.2263 28.2288 18.1751C28.1468 17.356 27.9798 16.5477 27.7307 15.7632C27.2636 14.2893 26.6481 13.0873 25.6729 11.7437C25.6123 11.66 25.5238 11.6008 25.4234 11.5767C25.323 11.5527 25.2172 11.5653 25.1253 11.6123C21.9782 13.2207 18.7223 13.4141 15.9575 12.1573C14.2892 11.3996 13.6127 12.4818 13.016 13.4364C12.3186 14.5529 11.8105 15.7774 11.5054 17.0753C11.2435 18.1877 11.142 19.3059 11.1991 20.4133C10.0153 18.4663 9.6377 15.9926 10.2194 13.7951L10.2193 13.7952ZM12.4265 24.3085C12.3777 24.2903 12.3262 24.281 12.2741 24.2809C12.1781 24.2809 12.0828 24.3131 12.0047 24.3749C11.4845 24.7882 10.652 24.7702 10.1496 24.3341C9.64737 23.8986 9.51223 23.077 9.84792 22.5034C10.1842 21.9294 10.9666 21.6453 11.5922 21.8693C11.6627 21.8947 11.7385 21.9013 11.8123 21.8885C11.8861 21.8757 11.9553 21.8439 12.0131 21.7963C12.0711 21.7488 12.1157 21.6872 12.1426 21.6173C12.1695 21.5474 12.1778 21.4718 12.1667 21.3977C11.9657 20.0587 12.0287 18.6325 12.348 17.2738C12.6312 16.0682 13.1032 14.9315 13.7503 13.8954C14.4561 12.7658 14.7118 12.543 15.5987 12.9462C18.5096 14.2692 21.9001 14.1262 25.1832 12.5502C25.9796 13.6969 26.5016 14.7545 26.9048 16.0249C27.1355 16.7522 27.2902 17.5015 27.3664 18.2607C27.3702 18.2988 27.3765 18.3554 27.3845 18.4269C27.5255 19.6572 27.4982 20.0633 27.4621 20.1972C27.399 20.2696 27.3617 20.3609 27.3562 20.4567C27.3506 20.5526 27.3771 20.6476 27.4315 20.7268C27.4961 20.8209 27.5953 20.8857 27.7074 20.9071C27.8195 20.9286 27.9355 20.9049 28.0303 20.8413C29.0723 20.1406 29.788 19.9526 30.2824 20.2496C30.772 20.5434 30.8748 21.2945 30.7233 21.8526C30.4226 22.9591 29.2916 23.7795 28.1441 23.7195C28.0848 23.7163 28.0256 23.7254 27.97 23.7461C27.9144 23.7668 27.8636 23.7987 27.8209 23.8398C27.7783 23.881 27.7445 23.9304 27.7217 23.9851C27.6988 24.0399 27.6875 24.0987 27.6883 24.1579C27.7226 26.5883 26.3006 29.0553 24.1497 30.2969C22.034 31.5183 19.2246 31.5788 16.9932 30.4509C14.7998 29.3427 13.155 27.1142 12.7001 24.6358C12.6867 24.5623 12.6544 24.4935 12.6065 24.4361C12.5585 24.3787 12.4965 24.3348 12.4265 24.3085ZM5.45621 31.3267C8.14175 30.8248 10.7636 30.0183 13.2669 28.9243C13.7243 35.2706 15.4184 41.5401 18.2079 47.2628C17.2726 46.2573 16.284 45.3069 15.313 44.3738C13.5808 42.7095 11.7903 40.9887 10.3876 39.0237C10.3238 38.9343 10.2961 38.8814 10.2844 38.852C10.3159 38.8269 10.3671 38.7945 10.3896 38.7798L12.6589 37.3436C12.7283 37.2995 12.7838 37.2367 12.8189 37.1623C12.854 37.0879 12.8672 37.0051 12.857 36.9236C12.8467 36.842 12.8134 36.765 12.7611 36.7016C12.7087 36.6382 12.6394 36.591 12.5612 36.5655C9.73599 35.6471 7.17957 33.755 5.45632 31.3266L5.45621 31.3267ZM2.89872 55.1334H2.89614C2.54627 55.1334 2.1602 55.1171 1.99703 54.9216C1.8664 54.7651 1.86146 54.4756 1.86812 54.1667L2.05944 44.9889C2.0792 44.056 2.09886 43.0914 2.4338 42.2395C3.02204 40.7411 4.4978 39.7651 5.86377 39.0072C6.20279 38.8192 6.53043 38.6532 6.84775 38.4925C7.90886 37.9549 8.91175 37.4467 9.79335 36.3591C9.80259 36.3482 9.80893 36.336 9.81645 36.3243C10.3441 36.6108 10.8886 36.865 11.4471 37.0854L9.92645 38.0479C9.78873 38.1353 9.55885 38.2809 9.45723 38.5557C9.29782 38.9876 9.57733 39.3794 9.6826 39.5268C11.1319 41.5573 12.9523 43.3067 14.7129 44.9985C16.4464 46.664 18.2385 48.3861 19.6414 50.3533C19.6755 50.3996 19.7186 50.4386 19.7681 50.4678L19.6934 51.7854C19.6317 52.8768 19.5696 54.0039 19.6849 55.1293L8.67101 55.1322C8.72258 52.0837 8.56144 49.0084 8.18622 45.9847C8.17208 45.8707 8.11327 45.767 8.02271 45.6963C7.93215 45.6257 7.81726 45.5938 7.70325 45.6078C7.58925 45.6221 7.48556 45.681 7.41498 45.7716C7.34439 45.8623 7.31269 45.9772 7.32685 46.0912C7.69745 49.0797 7.85644 52.1194 7.80445 55.1322L2.89872 55.1334ZM37.175 54.9551C37.0172 55.1116 36.689 55.1247 36.3663 55.1247L31.3663 55.1259C31.2979 52.2013 31.3678 49.2752 31.5756 46.3572C31.5838 46.2427 31.5463 46.1296 31.4711 46.0429C31.396 45.9561 31.2894 45.9027 31.1749 45.8944C31.1182 45.8903 31.0611 45.8974 31.0071 45.9153C30.9531 45.9332 30.9031 45.9616 30.8601 45.9989C30.817 46.0361 30.7818 46.0815 30.7563 46.1324C30.7308 46.1833 30.7157 46.2388 30.7116 46.2955C30.5025 49.2342 30.4319 52.1811 30.5001 55.1263L20.5548 55.1289C20.4336 54.0442 20.4965 52.9209 20.5582 51.8341L20.643 50.3352C20.6517 50.3247 20.6627 50.3163 20.6706 50.3045C22.0735 48.3378 23.866 46.6153 25.5995 44.9499C27.3598 43.2584 29.1805 41.5091 30.6294 39.4785C30.7346 39.3313 31.0146 38.9392 30.8547 38.5075C30.7532 38.2327 30.5232 38.087 30.386 37.9998L28.865 37.0368C29.4942 36.7878 30.1054 36.4956 30.6943 36.1624C30.6982 36.169 30.7011 36.1761 30.7053 36.1825C31.4779 37.2831 32.5268 38.1496 33.5411 38.9871C34.8192 40.0429 36.0264 41.04 36.6744 42.4405C37.3067 43.8077 37.3134 45.4446 37.3189 46.8885L37.347 54.1331C37.3482 54.4617 37.3361 54.7957 37.175 54.9551Z" fill="#1C4681" stroke="#1C4681" stroke-width="0.5"/>
</svg>
