<svg width="38" height="57" viewBox="0 0 38 57" fill="none" xmlns="http://www.w3.org/2000/svg">
<path d="M36.8402 53.4504L36.3836 44.9171C36.2569 42.5454 36.1129 39.857 34.7739 37.6142C33.565 35.5886 31.5799 34.2589 29.6606 32.9728C29.2741 32.7139 28.875 32.4466 28.4927 32.1797C25.6869 30.2239 24.2287 28.2681 24.0369 26.2036C25.6176 24.9199 26.7182 23.062 27.0539 21.047C27.069 21.0474 27.0841 21.0474 27.0988 21.0474C27.9452 21.0474 28.7327 20.7364 29.2687 20.1762C30.0063 19.4059 30.1507 18.1974 29.6043 17.3665C29.3387 16.9615 28.8956 16.6708 28.3954 16.5626C29.3501 15.1901 29.5746 13.3005 28.896 11.7681C28.8418 11.6456 28.7832 11.5268 28.7265 11.4118C28.5793 11.1127 28.4399 10.8303 28.408 10.5487C28.3539 10.0733 28.6006 9.58515 28.8613 9.06868C29.1634 8.4712 29.4755 7.8531 29.4084 7.13263C29.3265 6.25479 28.7383 5.65645 28.1687 5.0782C27.9108 4.81556 27.667 4.56753 27.4765 4.30101C27.3196 4.08155 27.1899 3.83406 27.0526 3.5713C26.8198 3.12701 26.5789 2.66714 26.1782 2.29826C25.6147 1.78006 24.8091 1.51194 23.7838 1.50141C23.4129 1.49808 23.0394 1.52494 22.6807 1.55136C22.2829 1.58069 21.9073 1.6084 21.5319 1.59669C20.8999 1.57693 20.2793 1.44555 19.6226 1.30633C19.179 1.21266 18.72 1.11534 18.2551 1.0554C16.7721 0.863546 15.5217 1.17367 14.7349 1.92862C14.5377 2.11822 14.377 2.3264 14.2218 2.52825C14.0456 2.75652 13.879 2.97254 13.6809 3.13077C13.3704 3.37838 12.96 3.5046 12.5253 3.63855C12.1388 3.75768 11.7394 3.88057 11.3672 4.0996C10.5682 4.57043 10.0332 5.43785 9.97068 6.36349C9.96102 6.50615 9.96263 6.64386 9.96392 6.77674C9.96649 7.00039 9.96821 7.21148 9.91482 7.38603C9.82169 7.69197 9.54433 7.94709 9.25064 8.21736C9.14859 8.31125 9.04289 8.40825 8.94213 8.51019C7.89273 9.5714 7.37658 11.2172 7.52632 13.0252C7.65061 14.5245 8.17181 15.9223 8.69463 17.2738C8.40084 17.4408 8.14249 17.67 7.94849 17.954C7.33511 18.8532 7.46638 20.1519 8.24733 20.9106C8.86962 21.5152 9.82384 21.6974 10.6315 21.4221C11.0511 23.3721 12.1887 25.1441 13.7694 26.353C13.7723 26.3676 13.7737 26.382 13.7782 26.3966C14.0312 27.2241 13.7358 28.2065 13.2 29.0897C13.1761 29.1191 13.1568 29.1509 13.1412 29.1845C12.8521 29.6432 12.4997 30.0725 12.1288 30.4349C11.0982 31.4417 9.72265 32.0866 8.39289 32.7109L8.16333 32.8188C6.62044 33.5443 5.14588 34.3012 4.06372 35.5731C2.80367 37.0535 2.3018 39.0135 1.9472 40.9114C1.15319 45.1611 0.856789 49.4888 1.06399 53.807C1.08075 54.1524 1.10846 54.7302 1.49657 55.1338C1.91444 55.5677 2.5435 55.592 2.91947 55.6067C13.4471 56.0115 23.9844 56.1038 34.5175 55.8837C35.1953 55.8694 35.9589 55.8056 36.4462 55.2266C36.8704 54.7221 36.8733 54.0727 36.8402 53.4504ZM24.3402 29.8013C24.8013 32.0654 25.0325 34.3703 25.03 36.6809C23.8972 35.1678 22.6733 33.725 21.3651 32.3605C21.4222 32.3098 21.4801 32.2586 21.5406 32.2069L24.3402 29.8013ZM8.38999 12.9543C8.26108 11.3984 8.687 10.0011 9.55819 9.11991C9.64498 9.03215 9.73822 8.94664 9.83727 8.85555C10.1864 8.53415 10.582 8.17031 10.7439 7.63912C10.8363 7.33694 10.8331 7.03488 10.8305 6.76836C10.8292 6.64623 10.8279 6.53129 10.8354 6.42225C10.8783 5.7874 11.2597 5.16887 11.8073 4.84617C12.0918 4.67871 12.4262 4.5759 12.7804 4.46676C13.2734 4.3153 13.7833 4.15847 14.2218 3.80763C14.5016 3.58441 14.7081 3.31618 14.9082 3.0573C15.05 2.87275 15.1848 2.69851 15.3354 2.55381C16.136 1.78511 17.4389 1.82367 18.1443 1.91466C18.5748 1.97052 19.0166 2.06365 19.4438 2.15389C20.1085 2.29493 20.7962 2.44048 21.505 2.46272C21.9263 2.47615 22.3426 2.4451 22.7454 2.41535C23.1012 2.38892 23.4386 2.36379 23.7756 2.36744C24.5799 2.37592 25.1908 2.56681 25.592 2.93569C25.8824 3.20253 26.0783 3.57678 26.2857 3.97338C26.4308 4.25031 26.5806 4.53648 26.7723 4.8046C27.0023 5.12644 27.2818 5.41046 27.552 5.68545C28.0359 6.17712 28.4932 6.64204 28.5464 7.21319C28.5902 7.6852 28.3467 8.16741 28.0887 8.67809C27.7819 9.28524 27.4647 9.91343 27.5479 10.646C27.5965 11.0779 27.7761 11.442 27.9498 11.7945C28.0036 11.9014 28.0552 12.0094 28.1046 12.1185C28.7172 13.5024 28.4332 15.2412 27.442 16.3805C27.4216 16.2588 27.3952 16.1382 27.3628 16.0191C27.34 15.9363 27.2931 15.862 27.228 15.8059C27.163 15.7498 27.0826 15.7144 26.9973 15.7041C26.6855 15.6662 26.3721 15.631 26.0578 15.5971C26.0801 14.953 26.2503 14.3143 26.4321 13.6413L26.4618 13.5317C26.6863 12.6979 26.8827 11.8801 26.8228 11.0354C26.7501 10.012 26.2709 9.12657 25.5408 8.66628C24.9715 8.30706 24.1284 8.22617 23.619 8.76575C23.5326 8.85727 23.4701 8.95202 23.4151 9.03602C23.3819 9.08629 23.3508 9.13377 23.3211 9.16944C23.1025 9.43208 22.6429 9.45732 22.2963 9.43208C21.0774 9.34356 19.8811 8.73051 19.0973 7.79305C19.0376 7.72174 18.9566 7.67152 18.8661 7.64981C18.7757 7.62811 18.6807 7.63608 18.5952 7.67254C18.5096 7.709 18.4381 7.77202 18.3911 7.85228C18.3441 7.93254 18.3242 8.02578 18.3344 8.11821C18.4649 9.30575 18.9613 10.4505 19.7275 11.3677C18.9029 11.3925 18.0772 11.2162 17.3348 10.8487C16.3404 10.3565 15.5258 9.53574 15.0413 8.53748L14.9977 8.44596C14.7937 8.02057 14.5398 7.49141 13.9696 7.31342C13.5256 7.17592 13.02 7.31181 12.5814 7.68724C11.5996 8.5291 11.514 9.87519 11.5505 10.6024C11.5761 11.1169 11.6633 11.6199 11.7477 12.1068C11.8246 12.5499 11.8966 12.9686 11.9265 13.3937C11.9662 13.9651 11.9344 15.018 11.2785 15.6533C11.133 15.67 10.987 15.6864 10.8418 15.7041C10.7564 15.7144 10.6761 15.7498 10.611 15.8059C10.546 15.862 10.4991 15.9363 10.4763 16.0191C10.389 16.3406 10.3442 16.6721 10.3429 17.0053C10.0698 16.9506 9.7891 16.9454 9.51414 16.9898C9.00927 15.6868 8.5045 14.342 8.38999 12.9543ZM19.6394 16.0561C19.5299 16.3079 19.4682 16.5785 19.448 16.858L18.3973 16.9998C18.3894 16.6603 18.3238 16.3414 18.1997 16.0561C17.8443 15.2383 17.0138 15.2383 16.6148 15.2379H16.6097C15.8742 15.2379 15.1315 15.2987 14.4131 15.3574C14.257 15.3704 14.1013 15.3831 13.9461 15.3952C13.4388 15.4347 12.9285 15.48 12.4196 15.5308C12.7192 14.9303 12.8492 14.1788 12.7901 13.3336C12.7577 12.8649 12.678 12.4046 12.6008 11.9594C12.5173 11.4768 12.4384 11.0212 12.4154 10.5597C12.367 9.59117 12.6331 8.78422 13.145 8.3453C13.3431 8.17579 13.5663 8.09523 13.7119 8.14099C13.9217 8.20598 14.0715 8.51857 14.2163 8.82075L14.262 8.91549C14.8302 10.0858 15.7848 11.048 16.9509 11.6254C18.1166 12.2024 19.461 12.3782 20.7359 12.1202C20.8149 12.1042 20.8879 12.0664 20.9466 12.0112C21.0054 11.9559 21.0475 11.8853 21.0683 11.8074C21.089 11.7295 21.0876 11.6473 21.0642 11.5701C21.0407 11.493 20.9962 11.4239 20.9356 11.3707C20.3099 10.8206 19.8235 10.1148 19.5202 9.33809C20.3179 9.88819 21.2574 10.2252 22.2339 10.2961C23.0215 10.3535 23.6277 10.1555 23.987 9.7233C24.0479 9.65068 24.0961 9.5772 24.1389 9.51222C24.178 9.4526 24.2148 9.39685 24.2489 9.36032C24.4263 9.17277 24.8179 9.23443 25.0792 9.39899C25.5769 9.71277 25.9058 10.3477 25.9588 11.0971C26.0095 11.8079 25.8379 12.5183 25.6256 13.3068L25.5962 13.4159C25.414 14.0897 25.2278 14.7846 25.1942 15.5093C24.7599 15.4674 24.3257 15.4287 23.8934 15.3952C23.7382 15.3831 23.5825 15.37 23.4263 15.3574C22.708 15.2987 21.9649 15.2379 21.2293 15.2379H21.2242C20.8252 15.2379 19.9948 15.2383 19.6394 16.0561ZM11.2501 16.5277C12.1693 16.4203 13.0905 16.3306 14.0133 16.2588C14.1698 16.2462 14.3263 16.2335 14.4835 16.2205C15.1848 16.1631 15.9094 16.1039 16.6097 16.1039H16.6143C17.1771 16.1039 17.3176 16.2 17.4054 16.4014C17.7436 17.1794 17.3655 18.6736 16.3526 19.5096C15.3387 20.3463 13.7417 20.439 12.6382 19.7247C11.6142 19.0626 11.0499 17.7289 11.2501 16.5277ZM20.4337 16.4014C20.5213 16.2 20.662 16.1039 21.2246 16.1039H21.2289C21.9292 16.1039 22.6543 16.1631 23.3554 16.2205C23.5124 16.2335 23.6693 16.2462 23.8259 16.2588C24.7485 16.3306 25.6695 16.4203 26.5886 16.5278C26.7891 17.7291 26.2244 19.0623 25.2005 19.7247C24.097 20.439 22.5003 20.3463 21.4861 19.5096C20.4735 18.6736 20.0955 17.1794 20.4337 16.4014ZM11.386 20.7142C11.3758 20.6401 11.3466 20.5699 11.3012 20.5105C11.2558 20.4511 11.1958 20.4045 11.1271 20.3752C11.0583 20.3456 10.983 20.3345 10.9086 20.3429C10.8343 20.3513 10.7633 20.3789 10.7029 20.423C10.1616 20.8154 9.33078 20.7557 8.85114 20.29C8.37108 19.8238 8.28761 18.9955 8.66477 18.4429C9.04042 17.8923 9.83802 17.6678 10.4457 17.9397C10.6769 18.9531 11.2853 19.8813 12.1677 20.452C12.8136 20.8698 13.5743 21.0755 14.3351 21.0755C15.259 21.0755 16.1835 20.7721 16.9039 20.1775C17.4242 19.7482 17.8925 19.0635 18.1565 18.3455C18.2131 18.1919 18.2596 18.0387 18.2967 17.8873L19.5059 17.724C19.6914 18.6758 20.252 19.6135 20.9351 20.1771C21.6556 20.7722 22.5801 21.0751 23.5044 21.0751C24.2652 21.0751 25.0255 20.8695 25.6713 20.452C26.6709 19.8053 27.3183 18.7013 27.4647 17.534C27.6318 17.4136 27.8583 17.361 28.1013 17.3896C28.4235 17.4274 28.7223 17.6007 28.8809 17.842C29.2061 18.3367 29.1016 19.0988 28.6434 19.5774C28.2058 20.0353 27.4765 20.2569 26.7405 20.1565C26.6833 20.1488 26.6252 20.1525 26.5695 20.1675C26.5138 20.1825 26.4616 20.2085 26.4161 20.2439C26.3706 20.2794 26.3326 20.3236 26.3044 20.374C26.2761 20.4243 26.2582 20.4798 26.2517 20.5371C25.9789 22.9385 24.4875 25.1424 22.3593 26.2885C20.2306 27.4343 17.5703 27.4662 15.4151 26.3714C13.2596 25.2768 11.7158 23.109 11.386 20.7142ZM15.0224 27.1435C16.1939 27.7386 17.499 28.0351 18.8043 28.0351C20.1782 28.0351 21.5519 27.7066 22.7697 27.0511C22.9297 26.9647 23.0867 26.8727 23.2405 26.7755C23.3697 27.5044 23.6354 28.2173 24.0398 28.9177L20.9762 31.5503C20.7496 31.745 20.4928 31.9653 20.3003 32.2565C19.9701 32.7558 19.9008 33.3442 19.8394 33.8636L19.8328 33.9211C19.6909 35.1165 19.4683 36.3008 19.1664 37.466C19.0665 37.0947 18.9852 36.7095 18.9012 36.3137C18.6973 35.3469 18.4863 34.3471 17.9597 33.4583C17.4239 32.5524 16.6278 31.8751 15.8578 31.22C15.1625 30.6284 14.5024 30.0657 14.0434 29.3628C14.4643 28.6214 14.7488 27.799 14.7366 26.9903C14.831 27.0428 14.9259 27.0944 15.0224 27.1435ZM12.9252 36.7938C12.6477 34.5941 12.8906 32.36 13.6343 30.2713C14.121 30.8786 14.716 31.3858 15.2964 31.8797C15.6732 32.2003 16.0391 32.5117 16.3689 32.8415L12.9252 36.7938ZM2.12123 54.5341C1.97062 54.3776 1.94377 54.0688 1.92905 53.7659C1.72525 49.5149 2.01703 45.2547 2.79851 41.0713C3.1833 39.014 3.65788 37.3875 4.72371 36.135C5.69383 34.9949 7.07859 34.2866 8.53253 33.6031L8.76123 33.4956C10.0234 32.9031 11.3243 32.2914 12.4017 31.359C11.9079 33.3257 11.8139 35.3822 12.1366 37.393C12.2097 37.8487 12.5075 38.0089 12.7468 38.0089C12.7513 38.0089 12.7555 38.0089 12.7597 38.0086C13.0211 38.0022 13.1781 37.8222 13.2368 37.7547L16.9437 33.5003C17.0402 33.6291 17.1325 33.7604 17.2147 33.8993C17.6684 34.6655 17.8555 35.553 18.054 36.4925C18.2235 37.2944 18.401 38.121 18.7564 38.8914L18.5101 55.1108C15.5029 55.083 12.496 55.03 9.48965 54.9518L8.53081 44.4874C8.50901 44.249 8.2975 44.0727 8.0601 44.0955C8.00344 44.1007 7.94836 44.1169 7.898 44.1434C7.84764 44.1698 7.80298 44.2059 7.76658 44.2497C7.73018 44.2934 7.70274 44.3438 7.68585 44.3981C7.66896 44.4525 7.66293 44.5096 7.66812 44.5662L8.61772 54.9286C6.72929 54.8764 4.84117 54.814 2.95342 54.7415C2.62063 54.7289 2.28279 54.702 2.12123 54.5341ZM35.7835 54.6693C35.5291 54.971 34.9871 55.0075 34.4991 55.0175C32.9081 55.0506 31.3171 55.0765 29.7259 55.0952C29.7942 51.3435 30.2136 47.6065 30.9789 43.9331C30.9905 43.8774 30.9911 43.82 30.9806 43.7641C30.97 43.7081 30.9486 43.6549 30.9175 43.6072C30.8863 43.5596 30.8461 43.5186 30.7991 43.4865C30.7521 43.4544 30.6993 43.4319 30.6436 43.4203C30.5879 43.4086 30.5305 43.4081 30.4746 43.4186C30.4187 43.4292 30.3654 43.4507 30.3178 43.4819C30.2702 43.513 30.2292 43.5533 30.1972 43.6003C30.1652 43.6474 30.1428 43.7002 30.1312 43.756C29.3529 47.4909 28.9272 51.2907 28.8598 55.1053C25.704 55.1375 22.54 55.1414 19.3761 55.1174L19.6208 39.0173C19.6246 39.0076 19.6288 38.9988 19.6321 38.9888C20.138 37.3698 20.4931 35.7075 20.6929 34.0231L20.6997 33.9648C20.7365 33.6509 20.7735 33.35 20.8595 33.0865C22.3869 34.692 23.8072 36.4187 25.0833 38.228C25.1232 38.2847 25.1762 38.331 25.2377 38.3629C25.2993 38.3949 25.3677 38.4115 25.437 38.4114C25.549 38.4115 25.6566 38.3682 25.7373 38.2906C25.818 38.2129 25.8654 38.1071 25.8696 37.9952C25.9641 35.5515 25.803 33.1045 25.3888 30.6943C26.0904 31.4357 26.9582 32.1663 27.9975 32.8905C28.3865 33.1616 28.7889 33.4314 29.1783 33.6924C31.0184 34.9252 32.9208 36.2001 34.0303 38.058C35.2594 40.1175 35.397 42.6918 35.5187 44.9633L35.9752 53.4969C35.9999 53.9644 36.0042 54.4062 35.7835 54.6693Z" fill="#1C4681" stroke="#1C4681" stroke-width="0.5"/>
</svg>
