<svg width="56" height="55" viewBox="0 0 56 55" fill="none" xmlns="http://www.w3.org/2000/svg">
<path d="M39.2857 55H0.785714C0.57733 55 0.37748 54.9172 0.23013 54.7699C0.0827804 54.6225 0 54.4227 0 54.2143V0.785727C0 0.577343 0.0827804 0.377493 0.23013 0.230143C0.37748 0.0827935 0.57733 1.31327e-05 0.785714 1.31327e-05H28.2857C28.3891 -0.000584712 28.4916 0.019235 28.5874 0.0583357C28.6831 0.0974365 28.7702 0.155049 28.8436 0.22787L39.8436 11.2279C39.9164 11.3013 39.974 11.3884 40.0131 11.4841C40.0522 11.5798 40.072 11.6823 40.0714 11.7857V29.0714C40.0714 29.2798 39.9886 29.4797 39.8413 29.627C39.6939 29.7744 39.4941 29.8571 39.2857 29.8571C39.0773 29.8571 38.8775 29.7744 38.7301 29.627C38.5828 29.4797 38.5 29.2798 38.5 29.0714V12.1079L27.9636 1.57144H1.57143V53.4286H38.5V40.4171C38.5 40.2088 38.5828 40.0089 38.7301 39.8616C38.8775 39.7142 39.0773 39.6314 39.2857 39.6314C39.4941 39.6314 39.6939 39.7142 39.8413 39.8616C39.9886 40.0089 40.0714 40.2088 40.0714 40.4171V54.2143C40.0714 54.4227 39.9886 54.6225 39.8413 54.7699C39.6939 54.9172 39.4941 55 39.2857 55Z" fill="#1C4681"/>
<path d="M39.2858 12.5714H28.2858C28.0774 12.5714 27.8775 12.4886 27.7302 12.3413C27.5828 12.1939 27.5001 11.9941 27.5001 11.7857V0.785714C27.5001 0.57733 27.5828 0.37748 27.7302 0.23013C27.8775 0.0827803 28.0774 0 28.2858 0C28.4942 0 28.694 0.0827803 28.8414 0.23013C28.9887 0.37748 29.0715 0.57733 29.0715 0.785714V11H39.2858C39.4942 11 39.694 11.0828 39.8414 11.2301C39.9887 11.3775 40.0715 11.5773 40.0715 11.7857C40.0715 11.9941 39.9887 12.1939 39.8414 12.3413C39.694 12.4886 39.4942 12.5714 39.2858 12.5714ZM21.2144 11H5.50007C5.29169 11 5.09184 10.9172 4.94449 10.7699C4.79714 10.6225 4.71436 10.4227 4.71436 10.2143C4.71436 10.0059 4.79714 9.80605 4.94449 9.6587C5.09184 9.51135 5.29169 9.42857 5.50007 9.42857H21.2144C21.4227 9.42857 21.6226 9.51135 21.7699 9.6587C21.9173 9.80605 22.0001 10.0059 22.0001 10.2143C22.0001 10.4227 21.9173 10.6225 21.7699 10.7699C21.6226 10.9172 21.4227 11 21.2144 11ZM25.9286 19.6429H5.50007C5.29169 19.6429 5.09184 19.5601 4.94449 19.4127C4.79714 19.2654 4.71436 19.0655 4.71436 18.8571C4.71436 18.6488 4.79714 18.4489 4.94449 18.3016C5.09184 18.1542 5.29169 18.0714 5.50007 18.0714H25.9286C26.137 18.0714 26.3369 18.1542 26.4842 18.3016C26.6316 18.4489 26.7143 18.6488 26.7143 18.8571C26.7143 19.0655 26.6316 19.2654 26.4842 19.4127C26.3369 19.5601 26.137 19.6429 25.9286 19.6429ZM34.5715 28.2857H5.50007C5.29169 28.2857 5.09184 28.2029 4.94449 28.0556C4.79714 27.9082 4.71436 27.7084 4.71436 27.5C4.71436 27.2916 4.79714 27.0918 4.94449 26.9444C5.09184 26.7971 5.29169 26.7143 5.50007 26.7143H34.5715C34.7799 26.7143 34.9797 26.7971 35.1271 26.9444C35.2744 27.0918 35.3572 27.2916 35.3572 27.5C35.3572 27.7084 35.2744 27.9082 35.1271 28.0556C34.9797 28.2029 34.7799 28.2857 34.5715 28.2857ZM25.9915 36.9286H5.50007C5.29169 36.9286 5.09184 36.8458 4.94449 36.6984C4.79714 36.5511 4.71436 36.3512 4.71436 36.1428C4.71436 35.9345 4.79714 35.7346 4.94449 35.5873C5.09184 35.4399 5.29169 35.3571 5.50007 35.3571H25.9915C26.1999 35.3571 26.3997 35.4399 26.5471 35.5873C26.6944 35.7346 26.7772 35.9345 26.7772 36.1428C26.7772 36.3512 26.6944 36.5511 26.5471 36.6984C26.3997 36.8458 26.1999 36.9286 25.9915 36.9286ZM32.8036 45.5714H5.50007C5.29169 45.5714 5.09184 45.4886 4.94449 45.3413C4.79714 45.1939 4.71436 44.9941 4.71436 44.7857C4.71436 44.5773 4.79714 44.3775 4.94449 44.2301C5.09184 44.0828 5.29169 44 5.50007 44H32.8036C33.012 44 33.2119 44.0828 33.3592 44.2301C33.5066 44.3775 33.5893 44.5773 33.5893 44.7857C33.5893 44.9941 33.5066 45.1939 33.3592 45.3413C33.2119 45.4886 33.012 45.5714 32.8036 45.5714ZM35.1293 41.7921C34.6501 41.7921 34.1551 41.7921 33.6444 41.7293C33.5285 41.7195 33.4162 41.6841 33.3157 41.6257C33.2151 41.5673 33.1288 41.4873 33.0629 41.3914C32.9973 41.2947 32.9541 41.1846 32.9364 41.069C32.9187 40.9535 32.9271 40.8355 32.9608 40.7236C36.1036 30.2029 41.8551 23.9643 46.1293 20.5857C48.7246 18.4619 51.6744 16.8127 54.8429 15.7143C54.9682 15.6777 55.1006 15.673 55.2282 15.7004C55.3557 15.7278 55.4745 15.7866 55.5736 15.8714C55.6716 15.9558 55.7473 16.063 55.7939 16.1837C55.8405 16.3043 55.8566 16.4345 55.8408 16.5629C55.8408 16.7121 54.0415 30.7057 42.6251 35.5771C43.5589 35.7588 44.5209 35.7373 45.4458 35.5143C45.6013 35.4804 45.7635 35.4945 45.9108 35.5549C46.0582 35.6152 46.1837 35.7189 46.2708 35.8521C46.3603 35.9829 46.4082 36.1376 46.4082 36.2961C46.4082 36.4545 46.3603 36.6093 46.2708 36.74C44.9228 38.3771 43.2178 39.6836 41.2865 40.5593C39.3552 41.4351 37.249 41.8568 35.1293 41.7921ZM34.7601 40.2207C37.9681 40.3685 41.1145 39.3056 43.5758 37.2428C42.2941 37.2602 41.0455 36.8357 40.0401 36.0407C39.9404 35.9469 39.8669 35.8287 39.8269 35.6978C39.7869 35.5669 39.7819 35.4278 39.8122 35.2943C39.8426 35.1612 39.9071 35.0383 39.9994 34.9377C40.0917 34.8371 40.2086 34.7623 40.3386 34.7207C50.2465 31.6407 53.2715 21.3636 54.0493 17.6707C50.4036 19.2029 39.6786 24.9071 34.7601 40.2207Z" fill="#1C4681"/>
<path d="M32.8033 45.5716H32.7326C32.6293 45.5627 32.5287 45.5334 32.4367 45.4855C32.3448 45.4376 32.2632 45.3719 32.1967 45.2923C32.1303 45.2126 32.0802 45.1207 32.0495 45.0216C32.0187 44.9225 32.0079 44.8184 32.0176 44.7151C32.2306 43.3602 32.5458 42.0233 32.9605 40.7158C33.0221 40.5187 33.1589 40.3537 33.3412 40.2567C33.5236 40.1596 33.7368 40.1383 33.9348 40.1973C34.034 40.2269 34.1264 40.2759 34.2066 40.3414C34.2868 40.4069 34.3533 40.4876 34.4022 40.5789C34.4511 40.6701 34.4815 40.7702 34.4916 40.8732C34.5018 40.9763 34.4914 41.0804 34.4612 41.1794C34.0765 42.3814 33.7823 43.6106 33.5812 44.8566C33.5636 45.0511 33.4742 45.2321 33.3304 45.3643C33.1866 45.4965 32.9987 45.5704 32.8033 45.5716Z" fill="#1C4681"/>
</svg>
