<svg width="41" height="57" viewBox="0 0 41 57" fill="none" xmlns="http://www.w3.org/2000/svg">
<path d="M40.1875 54.1688L38.4735 42.6906C38.1856 40.765 37.8596 38.5821 36.7408 36.7635C35.5 34.7472 33.4813 33.4506 31.5292 32.1964C31.1935 31.9807 30.8465 31.7579 30.5124 31.5371C27.6776 29.6607 26.1955 27.8533 25.8564 25.8585C27.7682 24.5421 29.0527 22.424 29.2792 20.1689C29.301 20.1697 29.3228 20.1697 29.3442 20.1697C30.5612 20.1697 31.744 19.3074 32.042 18.1047C32.3568 16.8337 31.7326 15.6967 30.5124 15.2497C30.9333 14.4638 31.165 13.5825 31.3496 12.7341C32.1842 8.89503 31.6027 6.02064 29.5713 3.94567C28.2994 2.64694 26.4598 1.75695 24.1036 1.30084C21.7261 0.840962 19.3843 0.909282 17.3307 1.49924C15.6055 1.99532 14.0438 2.87188 12.8147 4.03462C11.8432 4.95275 11.145 6.38318 10.6789 8.40777C10.1418 10.7418 10.4019 13.2348 11.3842 15.4583C10.9109 15.5955 10.4703 15.8837 10.1284 16.29C9.66215 16.8443 9.44268 17.5425 9.52658 18.2055C9.61048 18.8689 9.99655 19.4903 10.5865 19.9113C11.0565 20.247 11.6083 20.4186 12.1408 20.4052C12.7786 22.4655 14.0777 24.2912 15.7583 25.5324C15.7588 26.3768 15.7511 27.3242 15.4033 28.1077C14.9941 29.0291 14.1298 29.7098 13.2935 30.3677C13.1634 30.4701 13.035 30.5716 12.9091 30.6728C12.0493 31.3647 11.0049 31.8813 9.9944 32.3806C9.71618 32.5182 9.42829 32.6604 9.14974 32.8039C7.4528 33.6773 5.7391 34.7141 4.70011 36.3728C3.91249 37.6304 3.60655 39.133 3.36109 40.3408C2.43943 44.8742 1.66636 49.4366 1.04314 54.0206C0.99577 54.3689 0.907684 55.0173 1.29913 55.488C1.717 55.9908 2.41621 55.9912 2.79176 55.9912L38.635 56H38.6496C38.9707 56 39.5493 55.9937 39.9224 55.5866C40.3323 55.1389 40.238 54.5078 40.1876 54.1688H40.1875ZM25.5061 36.9477C26.7012 37.7818 27.8307 38.7059 28.8849 39.7121C29.0397 39.8598 29.2059 40.0294 29.2235 40.1755C29.2445 40.3495 29.0674 40.579 28.8727 40.8011L21.051 49.7246L26.0408 28.5603C26.2455 28.8713 26.4705 29.1676 26.71 29.4492C26.7188 29.4844 26.731 29.5188 26.749 29.5515L29.7863 35.0468C28.3452 35.2533 26.9354 35.6381 25.5893 36.1924C25.5173 36.2219 25.4547 36.2702 25.408 36.3323C25.3612 36.3945 25.3321 36.4681 25.3236 36.5453C25.3152 36.6226 25.3277 36.7007 25.3598 36.7715C25.3919 36.8423 25.4424 36.9032 25.5061 36.9477ZM22.2695 40.7809L21.2301 37.9422C21.2481 37.9221 21.2649 37.9027 21.28 37.8855C21.8654 37.2095 22.3868 36.4808 22.8377 35.7085L23.2342 36.2703C23.2568 36.3028 23.2837 36.3301 23.3131 36.3543L22.2695 40.7809ZM22.2955 34.9398C22.2709 34.9652 22.2496 34.9935 22.2321 35.0241C21.7767 35.8418 21.2385 36.6106 20.626 37.3182C20.5438 37.4127 20.4892 37.4647 20.4615 37.473C20.4388 37.4726 20.3096 37.4131 20.1329 37.1415C19.6261 36.3632 19.1993 35.5101 18.7876 34.6814C19.3713 33.9217 19.9327 33.1452 20.4712 32.3529L22.2955 34.9398ZM23.5737 35.2492L20.9939 31.5917C21.5192 31.4968 21.9825 31.2039 22.4168 30.9044C23.317 30.2824 24.1977 29.6326 25.0574 28.9558L23.5737 35.2492ZM17.3314 35.1295C16.9869 33.1913 16.6869 31.2463 16.4318 29.2993C17.2836 29.8912 18.1484 30.4642 19.0255 31.0181C19.3398 31.2161 19.6532 31.4008 19.991 31.5133C19.1608 32.7591 18.2733 33.9658 17.3314 35.1295ZM17.5396 36.241C17.7613 35.9751 17.9801 35.7068 18.196 35.4362C18.563 36.1694 18.95 36.9125 19.4069 37.6141C19.5021 37.7605 19.5981 37.8793 19.6931 37.9745C19.3147 38.9788 18.9193 39.9767 18.5072 40.9677C18.1539 39.3998 17.8296 37.8255 17.5346 36.2456C17.5362 36.244 17.5379 36.2427 17.5396 36.241ZM20.4669 38.3757L21.7853 41.9776C21.8164 42.0624 21.8713 42.1312 21.9397 42.1799L20.4458 48.5153C19.861 46.4922 19.3254 44.4553 18.8395 42.4062C19.4121 41.075 19.9547 39.7312 20.4669 38.3757ZM11.5236 8.6022C11.9499 6.74949 12.5672 5.46129 13.4101 4.66411C14.5389 3.59612 15.9778 2.7896 17.5702 2.33176C19.4929 1.77962 21.695 1.7171 23.9396 2.1513C26.1195 2.57346 27.8064 3.38085 28.9523 4.55196C30.7642 6.40209 31.2716 9.01846 30.5036 12.55C30.301 13.4814 30.042 14.4492 29.5239 15.2175C29.2997 15.5494 29.1106 15.7764 28.9775 15.9118C28.9704 15.89 28.9641 15.8711 28.959 15.856C28.943 15.8041 28.9252 15.7527 28.9057 15.702C28.7899 15.4159 28.6695 15.1281 28.5487 14.8389C28.1794 13.9556 27.7971 13.0422 27.5407 12.1379C27.0867 10.5341 26.8303 8.31345 27.4711 6.88882C27.4715 6.88796 27.472 6.88764 27.4724 6.88635C27.5193 6.78166 27.5228 6.66262 27.4821 6.55536C27.4413 6.4481 27.3597 6.36139 27.2551 6.31425C27.1505 6.26711 27.0315 6.26341 26.9242 6.30394C26.8168 6.34448 26.73 6.42594 26.6826 6.53046L26.6813 6.53261C25.8032 8.47963 24.6797 10.0502 23.4318 11.0745C22.4281 11.8988 21.3115 12.575 20.116 13.0828C19.0858 13.52 18.0267 13.8201 16.955 13.9791C17.7976 12.8642 18.3625 11.5407 18.5752 10.1585C18.5886 10.0699 18.5743 9.97937 18.5343 9.89922C18.4943 9.81906 18.4304 9.75325 18.3515 9.71079C18.2724 9.66863 18.1821 9.652 18.0932 9.6632C18.0042 9.67439 17.9209 9.71286 17.8547 9.77331C17.2433 10.3322 16.5308 10.7564 15.7764 11.2055C15.6333 11.2904 15.4904 11.3759 15.3479 11.4619C14.4365 12.0132 13.5016 12.646 12.8344 13.5339C12.495 13.9854 12.2537 14.476 12.1181 14.9719C11.2588 12.9531 11.0389 10.7069 11.5236 8.6022ZM12.8738 19.8227C12.8453 19.7158 12.7769 19.6239 12.6827 19.5659C12.5885 19.5079 12.4756 19.4882 12.3674 19.5109C11.9491 19.5982 11.4833 19.4875 11.0897 19.2063C10.6965 18.9256 10.4397 18.521 10.3864 18.0972C10.3327 17.6729 10.4804 17.2173 10.7917 16.8476C11.0595 16.5291 11.4102 16.3206 11.7749 16.2552C11.902 16.4914 12.0367 16.7238 12.181 16.9517C12.2373 17.041 12.3245 17.1067 12.4259 17.1362C12.5274 17.1657 12.6361 17.1571 12.7316 17.112C12.8271 17.0671 12.9029 16.9888 12.9448 16.8919C12.9866 16.795 12.9915 16.6861 12.9586 16.5858C12.709 15.8225 12.9267 14.8523 13.5269 14.0542C14.1054 13.2839 14.9599 12.7093 15.7965 12.2029C15.9371 12.1181 16.078 12.0338 16.2195 11.9499C16.6274 11.7073 17.0424 11.4602 17.4443 11.1874C17.0785 12.322 16.4461 13.3707 15.6047 14.2175C15.4784 14.345 15.4436 14.5376 15.5175 14.7013C15.5914 14.865 15.7583 14.9661 15.9383 14.9551C17.472 14.8628 18.9914 14.5012 20.4543 13.8801C21.726 13.3402 22.9138 12.621 23.9815 11.7443C24.8023 11.0699 25.5531 10.2135 26.2265 9.18335C26.2328 10.1061 26.3705 11.1832 26.7073 12.3737C26.9776 13.3283 27.3703 14.2661 27.7498 15.1733C27.869 15.4572 27.9868 15.7417 28.1031 16.0269C28.1123 16.05 28.1224 16.0835 28.135 16.1221C28.2264 16.4062 28.3653 16.835 28.7505 16.9076C29.0195 16.9584 29.3803 16.8821 30.0286 16.0042C30.9639 16.2556 31.4243 16.997 31.2014 17.8967C30.9711 18.8274 29.9095 19.4782 28.9763 19.262C28.914 19.2475 28.8493 19.247 28.7868 19.2606C28.7243 19.2742 28.6656 19.3015 28.6149 19.3405C28.5642 19.3794 28.5226 19.429 28.4933 19.4858C28.464 19.5426 28.4477 19.6052 28.4454 19.6691C28.3627 22.0777 26.816 24.4633 24.5976 25.6051C22.4256 26.7229 19.6709 26.6986 17.4087 25.5412C15.2329 24.4284 13.5381 22.2909 12.8738 19.8227ZM17.0139 26.3125C18.2886 26.9646 19.7057 27.2912 21.1088 27.2912C22.4642 27.2912 23.8066 26.9861 24.9936 26.3751C25.0193 26.3621 25.0441 26.3482 25.0691 26.3348C25.1627 26.7421 25.296 27.1393 25.467 27.5206C25.4506 27.5307 25.4343 27.5403 25.4187 27.5528C24.292 28.4816 23.1263 29.362 21.9246 30.1914C21.4815 30.4974 21.0451 30.7717 20.6104 30.7576C20.247 30.7466 19.8869 30.5372 19.4878 30.285C18.4105 29.6048 17.352 28.8953 16.3135 28.1572C16.5501 27.4828 16.6072 26.7724 16.6207 26.0973C16.7503 26.1724 16.8812 26.2444 17.0139 26.3125ZM15.5779 29.4466C16.1516 33.8112 16.9449 38.1441 17.955 42.4287C17.9592 42.4615 17.9663 42.4934 17.9781 42.524C18.5252 44.8363 19.1351 47.1333 19.8072 49.4125C17.3499 47.0958 15.1166 44.5526 13.1369 41.8165C12.886 41.469 12.6607 41.1301 12.6581 40.7973C12.6544 40.3147 13.1181 39.893 13.5079 39.6241C13.6179 39.5481 13.7316 39.4747 13.8453 39.4017C14.3051 39.1041 14.781 38.7966 15.1096 38.2998C15.1797 38.1931 15.1999 38.0613 15.1638 37.9388C15.1459 37.8784 15.1151 37.8226 15.0735 37.7753C15.0319 37.728 14.9805 37.6903 14.9228 37.6649C13.6203 37.0908 12.2012 36.7651 10.7762 36.7102C11.3712 35.7492 11.9772 34.8026 12.5667 33.8816C13.293 32.7469 14.0442 31.5736 14.7713 30.3781C14.7997 30.3312 14.8188 30.2792 14.8276 30.2251C15.0936 29.985 15.3492 29.7273 15.5779 29.4466ZM1.9659 54.9346C1.82915 54.7701 1.86105 54.4369 1.90177 54.1373C2.52269 49.5721 3.29267 45.0285 4.21048 40.5136C4.44208 39.3743 4.73073 37.957 5.43488 36.8323C6.363 35.351 7.95929 34.391 9.54667 33.5744C9.82284 33.4329 10.1003 33.2939 10.3789 33.1573C11.2269 32.7381 12.0968 32.3051 12.8919 31.76C12.542 32.3125 12.1905 32.864 11.8374 33.4145C11.1115 34.5484 10.3608 35.7208 9.63443 36.9154C9.59383 36.982 9.57199 37.0584 9.57123 37.1364C9.57048 37.2144 9.59083 37.2911 9.63013 37.3585C9.66919 37.4262 9.72592 37.4819 9.79424 37.5197C9.86255 37.5576 9.93988 37.5761 10.0179 37.5734C11.3712 37.5309 12.7396 37.7563 14.0102 38.2288C13.821 38.3861 13.6015 38.528 13.3749 38.674C13.2541 38.7512 13.1345 38.8303 13.0161 38.9111C12.21 39.4671 11.7866 40.1217 11.7917 40.804C11.7963 41.3919 12.1122 41.8773 12.4354 42.3242C14.6582 45.3974 17.1955 48.2303 20.0061 50.777C20.0448 50.8123 20.0888 50.8383 20.1345 50.8567L20.2063 55.1297L8.38307 55.1268C8.88151 52.2275 8.9418 49.2698 8.56193 46.3525C8.55459 46.2961 8.53622 46.2417 8.50786 46.1924C8.4795 46.1431 8.4417 46.0999 8.39663 46.0652C8.35155 46.0305 8.30009 46.005 8.24517 45.9902C8.19025 45.9754 8.13295 45.9715 8.07654 45.9789C8.02014 45.9862 7.96573 46.0046 7.91642 46.0329C7.86712 46.0613 7.82388 46.0991 7.78918 46.1442C7.75449 46.1893 7.729 46.2407 7.7142 46.2956C7.69939 46.3506 7.69554 46.4079 7.70288 46.4643C8.07821 49.3449 8.01116 52.266 7.50404 55.1263L2.79219 55.125C2.44522 55.125 2.10479 55.1021 1.9659 54.9346ZM39.2832 55.0017C39.1651 55.1314 38.8339 55.1339 38.6472 55.1339H38.635L32.4993 55.1322C32.3994 52.5735 32.5715 50.0003 33.0121 47.4784C33.0225 47.4222 33.0216 47.3644 33.0095 47.3085C32.9975 47.2525 32.9744 47.1995 32.9417 47.1526C32.9091 47.1056 32.8674 47.0656 32.8192 47.0348C32.771 47.004 32.7171 46.9831 32.6607 46.9732C32.6044 46.9633 32.5466 46.9647 32.4908 46.9773C32.435 46.9899 32.3822 47.0134 32.3355 47.0465C32.2888 47.0796 32.2492 47.1216 32.2188 47.1701C32.1885 47.2186 32.168 47.2727 32.1587 47.3291C31.7096 49.9044 31.533 52.5199 31.632 55.1322L21.0727 55.1297L21.0027 50.9839C21.084 50.9621 21.1571 50.9169 21.2129 50.8538L29.5238 41.3717C29.7437 41.1208 30.1533 40.6538 30.0832 40.0718C30.0312 39.6412 29.7463 39.337 29.4831 39.0857C28.5919 38.2354 27.6484 37.4416 26.6582 36.7089C27.906 36.263 29.2024 35.9672 30.5201 35.8278C30.5911 35.8203 30.6593 35.7954 30.7184 35.7552C30.7774 35.715 30.8256 35.6607 30.8587 35.5973C30.8917 35.5339 30.9085 35.4633 30.9076 35.3918C30.9067 35.3202 30.8882 35.25 30.8536 35.1874L28.7186 31.3244C29.1701 31.6723 29.6182 31.9837 30.0345 32.259C30.3735 32.4834 30.7231 32.7079 31.0609 32.9252C32.9316 34.1266 34.866 35.3691 36.0032 37.2171C37.0295 38.8851 37.3414 40.9747 37.6167 42.8181L39.3307 54.2968C39.3723 54.5745 39.3991 54.8754 39.2833 55.0017H39.2832Z" fill="#1C4681" stroke="#1C4681" stroke-width="0.5"/>
</svg>
